<svg width="23" height="17" viewBox="0 0 23 17" fill="none" xmlns="http://www.w3.org/2000/svg">
<path fill-rule="evenodd" clip-rule="evenodd" d="M0 15.725C0 16.0632 0.138491 16.3875 0.385007 16.6266C0.631523 16.8657 0.96587 17 1.3145 17C1.66312 17 1.99747 16.8657 2.24399 16.6266C2.4905 16.3875 2.62899 16.0632 2.62899 15.725V1.275C2.62899 0.936849 2.4905 0.612548 2.24399 0.373439C1.99747 0.13433 1.66312 0 1.3145 0C0.96587 0 0.631523 0.13433 0.385007 0.373439C0.138491 0.612548 0 0.936849 0 1.275V15.725ZM13.7426 2.074C13.9888 2.31306 14.1271 2.63712 14.1271 2.975C14.1271 3.31288 13.9888 3.63694 13.7426 3.876L10.2899 7.225L21.6855 7.22444C22.0341 7.22444 22.3685 7.35877 22.615 7.59788C22.8615 7.83699 23 8.16129 23 8.49944C23 8.83759 22.8615 9.16189 22.615 9.401C22.3685 9.64011 22.0341 9.77444 21.6855 9.77444L10.2899 9.775L13.7426 13.124C13.8718 13.2407 13.9754 13.3815 14.0472 13.5379C14.119 13.6943 14.1577 13.8631 14.1608 14.0343C14.1639 14.2055 14.1314 14.3756 14.0653 14.5343C13.9992 14.6931 13.9008 14.8373 13.776 14.9584C13.6512 15.0794 13.5025 15.1749 13.3388 15.239C13.1751 15.3031 12.9998 15.3346 12.8233 15.3316C12.6468 15.3286 12.4727 15.2911 12.3115 15.2214C12.1503 15.1517 12.0051 15.0513 11.8848 14.926L6.1869 9.401L5.25799 8.5L6.1869 7.599L11.883 2.074C12.0051 1.95552 12.1501 1.86153 12.3096 1.7974C12.4691 1.73328 12.6401 1.70027 12.8128 1.70027C12.9855 1.70027 13.1565 1.73328 13.3161 1.7974C13.4756 1.86153 13.6205 1.95552 13.7426 2.074Z" fill="black"/>
</svg>
