<?xml version="1.0" standalone="no"?>
<!DOCTYPE svg PUBLIC "-//W3C//DTD SVG 20010904//EN"
 "http://www.w3.org/TR/2001/REC-SVG-20010904/DTD/svg10.dtd">
<svg version="1.0" xmlns="http://www.w3.org/2000/svg"
 width="12pt" height="12pt" viewBox="0 0 1200.000000 1200.000000"
 preserveAspectRatio="xMidYMid meet">

<g transform="translate(0.000000,1200.000000) scale(0.100000,-0.100000)"
fill="#929292" stroke="none">
<path d="M7985 11034 c-166 -40 -299 -197 -312 -367 -6 -81 14 -177 49 -236
11 -20 289 -305 617 -634 l596 -597 -2137 -2138 c-2266 -2267 -2158 -2154
-2158 -2242 0 -82 4 -87 423 -508 262 -263 416 -409 443 -422 52 -26 126 -26
178 0 28 13 710 689 2166 2145 l2125 2125 600 -600 c696 -695 646 -655 830
-655 99 0 116 3 168 27 66 31 156 112 191 172 60 102 57 -12 54 1892 l-3 1739
-33 68 c-59 119 -161 203 -282 231 -95 23 -3422 22 -3515 0z"/>
<path d="M1902 10209 c-476 -36 -910 -256 -1237 -626 -259 -294 -407 -620
-455 -1003 -14 -118 -14 -5742 0 -5860 64 -515 333 -967 765 -1285 236 -173
482 -276 795 -332 87 -15 325 -17 2885 -20 2909 -4 2984 -3 3190 38 342 69
651 235 914 492 336 328 515 695 561 1146 6 65 10 509 10 1210 0 1048 -1 1108
-19 1146 -23 52 -81 102 -128 112 -49 10 -487 10 -536 0 -43 -9 -100 -55 -125
-101 -16 -29 -17 -124 -22 -1186 l-5 -1155 -27 -96 c-50 -183 -133 -324 -273
-465 -185 -186 -382 -280 -640 -305 -74 -7 -1005 -9 -2870 -7 -2513 4 -2766 5
-2830 20 -205 48 -354 129 -507 276 -142 137 -239 299 -290 482 l-23 85 0
2875 0 2875 23 85 c30 110 99 255 161 339 69 92 202 219 290 276 135 87 273
135 446 155 59 6 900 10 2413 10 2286 0 2323 0 2361 20 48 24 87 70 101 118
13 49 13 496 -1 545 -6 21 -26 56 -46 78 -68 75 131 69 -2457 68 -1277 -1
-2367 -5 -2424 -10z"/>
</g>
</svg>
