<svg width="34" height="33" viewBox="0 0 34 33" fill="none" xmlns="http://www.w3.org/2000/svg">
<path d="M14.1666 2.75C12.3938 2.75092 10.6459 3.15551 9.06337 3.93125C7.48089 4.70699 6.10798 5.83224 5.05499 7.21656C4.002 8.60089 3.2983 10.2057 3.00045 11.9019C2.7026 13.5982 2.8189 15.3386 3.34001 16.9833C3.86113 18.628 4.77252 20.1311 6.00092 21.3718C7.22933 22.6126 8.7405 23.5562 10.413 24.1271C12.0854 24.6979 13.8726 24.88 15.6307 24.6586C17.3888 24.4372 19.0689 23.8186 20.536 22.8525L27.54 29.645C27.7345 29.8476 27.9691 30.0102 28.2298 30.1229C28.4904 30.2356 28.7718 30.2962 29.0572 30.3011C29.3425 30.306 29.6259 30.2551 29.8905 30.1513C30.1551 30.0476 30.3955 29.8932 30.5972 29.6974C30.799 29.5015 30.9581 29.2682 31.065 29.0114C31.1719 28.7546 31.2243 28.4795 31.2193 28.2026C31.2143 27.9256 31.1518 27.6525 31.0357 27.3995C30.9195 27.1465 30.7521 26.9188 30.5433 26.73L23.545 19.932C24.7028 18.2781 25.3742 16.3492 25.4871 14.3526C25.5999 12.3561 25.1499 10.3674 24.1855 8.60052C23.2211 6.8336 21.7787 5.35525 20.0134 4.32442C18.2482 3.29359 16.2268 2.74928 14.1666 2.75ZM7.0833 13.75C7.0833 11.9266 7.82958 10.178 9.15796 8.88864C10.4863 7.59933 12.288 6.875 14.1666 6.875C16.0452 6.875 17.8469 7.59933 19.1753 8.88864C20.5037 10.178 21.25 11.9266 21.25 13.75C21.25 15.5734 20.5037 17.322 19.1753 18.6114C17.8469 19.9007 16.0452 20.625 14.1666 20.625C12.288 20.625 10.4863 19.9007 9.15796 18.6114C7.82958 17.322 7.0833 15.5734 7.0833 13.75Z" fill="#AEAEAE"/>
</svg>
